<svg width="21" height="20" viewBox="0 0 21 20" fill="none" xmlns="http://www.w3.org/2000/svg">
<path d="M19.3713 10.651L19.3729 10.6527C19.4378 10.7242 19.4806 10.8131 19.4959 10.9085C19.5113 11.0039 19.4985 11.1018 19.4592 11.19C19.4199 11.2783 19.3557 11.3533 19.2746 11.4057C19.1934 11.4582 19.0988 11.4859 19.0021 11.4855H19H17H16.5V11.9855V18.9855C16.5 19.1181 16.4473 19.2453 16.3535 19.3391C16.2598 19.4328 16.1326 19.4855 16 19.4855H13C12.8674 19.4855 12.7402 19.4328 12.6464 19.3391C12.5527 19.2453 12.5 19.1181 12.5 18.9855V14.9855V14.4855H12H7.99998H7.49998V14.9855V18.9855C7.49998 19.1181 7.44731 19.2453 7.35354 19.3391C7.25977 19.4328 7.13259 19.4855 6.99998 19.4855H3.99998C3.86737 19.4855 3.7402 19.4328 3.64643 19.3391C3.55266 19.2453 3.49998 19.1181 3.49998 18.9855V11.9855V11.4855H2.99998H0.999984C0.80192 11.4855 0.623616 11.3693 0.544101 11.1899L0.543405 11.1883C0.504002 11.1003 0.491042 11.0026 0.506102 10.9073C0.521162 10.812 0.563593 10.7231 0.628234 10.6514L0.628631 10.651L9.62863 0.650983L9.62898 0.650592C9.80931 0.449803 10.1907 0.449803 10.371 0.650593L10.3713 0.650982L19.3713 10.651Z" stroke="#888888"/>
</svg>
