<svg width="21" height="15" viewBox="0 0 21 15" fill="none" xmlns="http://www.w3.org/2000/svg">
<path d="M21 13.6552C21 14.2327 20.5317 14.7 19.9552 14.7H11.5447C11.2677 14.7 11.0019 14.5899 10.806 14.394C10.6101 14.1981 10.5 13.9323 10.5 13.6552C10.5 13.3782 10.6101 13.1124 10.806 12.9165C11.0019 12.7206 11.2677 12.6105 11.5447 12.6105H19.9552C20.5327 12.6105 21 13.0777 21 13.6552ZM21 7.35C21 7.9275 20.5317 8.39475 19.9552 8.39475H1.04475C0.767665 8.39475 0.501929 8.28468 0.306 8.08875C0.110072 7.89282 0 7.62708 0 7.35C0 7.07291 0.110072 6.80718 0.306 6.61125C0.501929 6.41532 0.767665 6.30525 1.04475 6.30525H19.9552C20.5327 6.30525 21 6.77355 21 7.35ZM19.9552 2.0895C20.2323 2.0895 20.4981 1.97943 20.694 1.7835C20.8899 1.58757 21 1.32183 21 1.04475C21 0.767665 20.8899 0.501929 20.694 0.306C20.4981 0.110071 20.2323 8.25777e-09 19.9552 0H7.34475C7.20755 -4.08883e-09 7.0717 0.0270233 6.94494 0.0795268C6.81819 0.13203 6.70301 0.208986 6.606 0.306C6.50899 0.403014 6.43203 0.518187 6.37953 0.644942C6.32702 0.771697 6.3 0.907551 6.3 1.04475C6.3 1.18195 6.32702 1.3178 6.37953 1.44456C6.43203 1.57131 6.50899 1.68649 6.606 1.7835C6.70301 1.88051 6.81819 1.95747 6.94494 2.00997C7.0717 2.06248 7.20755 2.0895 7.34475 2.0895H19.9552Z" fill="#888888"/>
</svg>
