<svg width="24" height="20" viewBox="0 0 24 20" fill="none" xmlns="http://www.w3.org/2000/svg">
<path d="M15.067 1.75598C15.0405 1.75598 15.0147 1.75672 14.9882 1.75672C11.7472 1.78398 9.00869 3.48368 8.06196 5.82656C8.59463 5.73373 9.13468 5.68658 9.67103 5.68732C11.8312 5.66227 14.043 6.32608 15.7058 7.7355C17.2987 8.95631 18.1835 11.0325 18.006 13.0203C18.0907 12.9908 18.1747 12.9598 18.2579 12.9282C18.3117 12.9075 18.3648 12.8862 18.4178 12.8648C18.6293 12.7786 18.8348 12.6836 19.0345 12.5819C19.1339 12.531 19.2319 12.478 19.3277 12.4235C19.6165 12.2599 19.8891 12.0794 20.1448 11.8849C20.2722 11.7877 20.396 11.6867 20.5146 11.5821C20.6332 11.4775 20.7474 11.3699 20.8565 11.2587C20.8926 11.2218 20.9287 11.1843 20.964 11.1467C20.9994 11.1091 21.034 11.0708 21.0687 11.0325C21.1026 10.9942 21.1364 10.9551 21.1696 10.9161C21.2028 10.877 21.2352 10.838 21.2668 10.7982C21.2985 10.7584 21.3302 10.7186 21.3612 10.6781C21.3921 10.6376 21.4223 10.5971 21.4518 10.5558C21.5107 10.474 21.5674 10.3908 21.622 10.306C21.6492 10.264 21.6758 10.2213 21.7015 10.1786C21.7273 10.1359 21.7524 10.0924 21.7774 10.0497C21.8017 10.0062 21.826 9.96272 21.8496 9.91851C21.8732 9.8743 21.8953 9.8301 21.9174 9.78589C21.9395 9.74169 21.9609 9.69675 21.9815 9.6518C22.0021 9.60686 22.022 9.56192 22.0412 9.51624C22.0603 9.47056 22.0788 9.42488 22.0972 9.3792C22.1149 9.33353 22.1325 9.28711 22.1487 9.24069C22.2644 8.91578 22.3462 8.57835 22.3897 8.23281C22.3963 8.18345 22.4015 8.13409 22.4066 8.08399C22.411 8.03462 22.4155 7.98452 22.4184 7.93442C22.425 7.83422 22.428 7.73329 22.428 7.63235C22.428 7.58152 22.4272 7.53142 22.4258 7.48058C22.4191 7.27871 22.4 7.07979 22.369 6.88381C22.3609 6.83518 22.3528 6.78582 22.3433 6.73719C22.3337 6.68857 22.3241 6.63994 22.313 6.59205C22.302 6.54416 22.2909 6.49554 22.2784 6.44839C22.2659 6.4005 22.2534 6.35334 22.2394 6.30545C22.2254 6.2583 22.2114 6.21115 22.1959 6.164C21.8179 4.99034 20.9972 3.95888 19.8847 3.18971C19.7955 3.12782 19.7049 3.06815 19.6121 3.00994C19.4728 2.923 19.3299 2.83975 19.1833 2.76018C18.9873 2.65482 18.7855 2.5561 18.577 2.46621C18.4723 2.42127 18.367 2.3778 18.2594 2.33655C18.2056 2.31592 18.1518 2.29602 18.0973 2.27613C17.6626 2.1192 17.2058 1.99543 16.7306 1.90775C16.1965 1.80903 15.6402 1.75672 15.0685 1.75672L15.067 1.75598ZM9.78744 6.5729C9.76018 6.5729 9.73366 6.57363 9.7064 6.57363C5.67929 6.60826 2.42798 9.22522 2.42798 12.4485C2.42798 13.9861 3.16768 15.3852 4.37891 16.4322L3.06454 18.3242H9.78744C9.97826 18.3242 10.1669 18.3183 10.354 18.3072C10.4166 18.3035 10.4785 18.2991 10.5404 18.294C10.6642 18.2836 10.7872 18.2711 10.9088 18.2564C10.9699 18.249 11.0304 18.2409 11.0908 18.2321C11.3928 18.1893 11.6883 18.1311 11.9763 18.0597C12.0913 18.0309 12.2055 18 12.3182 17.9676C12.4877 17.9182 12.6534 17.8637 12.8162 17.8048C12.9791 17.7458 13.139 17.6825 13.2959 17.6147C13.4005 17.5697 13.5029 17.5226 13.6038 17.4732C13.7048 17.4239 13.805 17.373 13.9022 17.3207C14.0002 17.2677 14.096 17.2131 14.191 17.1571C14.3796 17.0444 14.5616 16.9243 14.7362 16.7983C14.9543 16.6399 15.1599 16.472 15.3529 16.2944C15.4303 16.2237 15.5047 16.1507 15.5776 16.0771C15.6867 15.9658 15.7913 15.8516 15.8907 15.7345C16.0226 15.5783 16.1457 15.4169 16.2591 15.2504C16.2871 15.2092 16.3151 15.1672 16.3424 15.1244C16.3969 15.0397 16.4485 14.9542 16.4971 14.8673C16.5214 14.8238 16.5457 14.7804 16.5693 14.7362C16.5929 14.692 16.615 14.6485 16.6371 14.6035C16.6592 14.5593 16.6805 14.5144 16.7012 14.4695C16.7218 14.4245 16.7417 14.3796 16.7608 14.3339C16.78 14.2882 16.7984 14.2425 16.8168 14.1969C16.8529 14.1048 16.8861 14.0119 16.9163 13.9184C16.931 13.8712 16.9458 13.8241 16.9598 13.7769C16.9738 13.7298 16.9863 13.6819 16.9988 13.634C17.0231 13.5382 17.0452 13.4417 17.0637 13.3444C17.0821 13.2472 17.0975 13.1492 17.1108 13.0505C17.1359 12.853 17.1484 12.6526 17.1484 12.45C17.1484 12.2474 17.1359 12.047 17.1108 11.8495C17.0607 11.4546 16.9612 11.0708 16.8176 10.7032C16.7999 10.6575 16.7807 10.6118 16.7616 10.5661C16.7424 10.5204 16.7225 10.4755 16.7019 10.4306C16.6813 10.3856 16.6599 10.3407 16.6378 10.2965C16.6157 10.2523 16.5936 10.2081 16.57 10.1638C16.5 10.032 16.4249 9.90304 16.3431 9.77632C16.0455 9.31216 15.6719 8.88337 15.2365 8.50025C15.1577 8.431 15.0759 8.36248 14.9926 8.29617C13.6606 7.23303 11.8209 6.57511 9.78892 6.57511L9.78744 6.5729Z" fill="#6750A4"/>
</svg>
