<svg width="24" height="24" viewBox="0 0 24 24" fill="none" xmlns="http://www.w3.org/2000/svg">
<path d="M14.7086 1.5C14.6808 1.5 14.6537 1.50093 14.6259 1.50093C11.2228 1.53528 8.34737 3.6769 7.3533 6.62893C7.91261 6.51196 8.47965 6.45255 9.04283 6.45348C11.311 6.42192 13.6333 7.25833 15.3793 9.03419C17.0519 10.5724 17.9809 13.1884 17.7945 15.693C17.8835 15.6559 17.9717 15.6169 18.0591 15.5769C18.1155 15.551 18.1712 15.524 18.2269 15.4971C18.449 15.3885 18.6648 15.2687 18.8744 15.1406C18.9789 15.0766 19.0818 15.0097 19.1823 14.9411C19.4856 14.735 19.7718 14.5075 20.0403 14.2625C20.1741 14.1399 20.304 14.0127 20.4286 13.8809C20.5531 13.7491 20.6731 13.6136 20.7875 13.4734C20.8255 13.427 20.8634 13.3796 20.9005 13.3323C20.9376 13.2849 20.974 13.2367 21.0103 13.1884C21.0459 13.1401 21.0815 13.0909 21.1163 13.0417C21.1511 12.9925 21.1852 12.9433 21.2184 12.8932C21.2517 12.8431 21.285 12.7929 21.3175 12.7419C21.3499 12.6908 21.3817 12.6398 21.4126 12.5878C21.4745 12.4847 21.5341 12.3798 21.5913 12.2731C21.6199 12.2202 21.6478 12.1663 21.6749 12.1125C21.7019 12.0586 21.7282 12.0039 21.7545 11.95C21.7801 11.8953 21.8056 11.8405 21.8303 11.7848C21.8551 11.7291 21.8783 11.6734 21.9015 11.6177C21.9247 11.562 21.9472 11.5054 21.9688 11.4487C21.9905 11.3921 22.0114 11.3355 22.0315 11.2779C22.0516 11.2204 22.0709 11.1628 22.0903 11.1053C22.1088 11.0477 22.1274 10.9892 22.1444 10.9307C22.2659 10.5214 22.3518 10.0962 22.3974 9.6608C22.4044 9.59861 22.4098 9.53641 22.4152 9.47329C22.4198 9.41109 22.4245 9.34796 22.4276 9.28484C22.4345 9.15859 22.4376 9.03141 22.4376 8.90423C22.4376 8.84018 22.4368 8.77705 22.4353 8.713C22.4283 8.45864 22.4082 8.20799 22.3757 7.96106C22.3672 7.89979 22.3587 7.8376 22.3487 7.77633C22.3386 7.71506 22.3285 7.65379 22.3169 7.59345C22.3053 7.53311 22.2937 7.47184 22.2806 7.41243C22.2674 7.35209 22.2543 7.29268 22.2396 7.23234C22.2249 7.17292 22.2102 7.11351 22.1939 7.0541C21.7971 5.5753 20.9353 4.27566 19.7672 3.3065C19.6736 3.22852 19.5784 3.15333 19.4809 3.07999C19.3347 2.97045 19.1847 2.86555 19.0307 2.76529C18.8249 2.63254 18.613 2.50815 18.394 2.39489C18.2842 2.33827 18.1736 2.2835 18.0606 2.23151C18.0042 2.20552 17.9477 2.18045 17.8904 2.15539C17.434 1.95766 16.9544 1.8017 16.4554 1.69123C15.8946 1.56684 15.3105 1.50093 14.7102 1.50093L14.7086 1.5ZM9.16506 7.56931C9.13644 7.56931 9.10859 7.57024 9.07996 7.57024C4.85149 7.61387 1.43762 10.9112 1.43762 14.9726C1.43762 16.91 2.21431 18.6729 3.4861 19.992L2.10601 22.3759H9.16506C9.36542 22.3759 9.56346 22.3685 9.75995 22.3546C9.82571 22.3499 9.89069 22.3444 9.95567 22.3379C10.0856 22.3249 10.2148 22.3091 10.3425 22.2905C10.4067 22.2812 10.4701 22.271 10.5335 22.2599C10.8507 22.206 11.1609 22.1327 11.4634 22.0427C11.5841 22.0064 11.704 21.9675 11.8224 21.9266C12.0003 21.8644 12.1743 21.7957 12.3453 21.7215C12.5163 21.6472 12.6841 21.5674 12.8489 21.4819C12.9588 21.4253 13.0663 21.3659 13.1723 21.3037C13.2783 21.2415 13.3835 21.1775 13.4856 21.1116C13.5885 21.0447 13.689 20.976 13.7888 20.9055C13.9869 20.7634 14.178 20.6121 14.3613 20.4534C14.5903 20.2538 14.8061 20.0421 15.0088 19.8184C15.09 19.7293 15.1682 19.6374 15.2447 19.5446C15.3592 19.4044 15.4691 19.2605 15.5735 19.1129C15.712 18.9161 15.8412 18.7128 15.9603 18.503C15.9897 18.451 16.0191 18.3981 16.0477 18.3442C16.105 18.2375 16.1591 18.1298 16.2102 18.0203C16.2357 17.9655 16.2612 17.9107 16.286 17.855C16.3108 17.7993 16.334 17.7446 16.3572 17.6879C16.3804 17.6322 16.4028 17.5756 16.4245 17.519C16.4461 17.4623 16.467 17.4057 16.4871 17.3482C16.5072 17.2906 16.5266 17.2331 16.5459 17.1755C16.5838 17.0595 16.6186 16.9425 16.6504 16.8246C16.6658 16.7652 16.6813 16.7058 16.696 16.6464C16.7107 16.587 16.7239 16.5266 16.737 16.4663C16.7625 16.3456 16.7857 16.224 16.8051 16.1014C16.8244 15.9789 16.8407 15.8554 16.8546 15.731C16.8809 15.4823 16.894 15.2298 16.894 14.9745C16.894 14.7192 16.8809 14.4667 16.8546 14.2179C16.802 13.7203 16.6975 13.2367 16.5467 12.7734C16.5281 12.7159 16.508 12.6583 16.4879 12.6008C16.4678 12.5432 16.4469 12.4866 16.4252 12.43C16.4036 12.3733 16.3812 12.3167 16.3579 12.261C16.3347 12.2053 16.3115 12.1496 16.2868 12.0939C16.2133 11.9277 16.1344 11.7653 16.0485 11.6056C15.736 11.0208 15.3438 10.4805 14.8866 9.99778C14.8038 9.91052 14.7179 9.82419 14.6305 9.74064C13.2318 8.40108 11.3002 7.5721 9.16661 7.5721L9.16506 7.56931Z" fill="#97A0A8"/>
</svg>
