<svg width="24" height="24" viewBox="0 0 24 24" fill="none" xmlns="http://www.w3.org/2000/svg">
<path d="M22 12V21C22 21.2652 21.8946 21.5195 21.7071 21.7071C21.5196 21.8946 21.2652 22 21 22H15C14.7348 22 14.4804 21.8946 14.2929 21.7071C14.1054 21.5195 14 21.2652 14 21V16H10V21C10 21.2652 9.89464 21.5195 9.70711 21.7071C9.51957 21.8946 9.26522 22 9 22H3C2.73478 22 2.48043 21.8946 2.29289 21.7071C2.10536 21.5195 2 21.2652 2 21V12C2.00006 11.7348 2.10545 11.4805 2.293 11.293L11.293 2.29296C11.4805 2.10546 11.7349 2.00012 12 2.00012C12.2652 2.00012 12.5196 2.10546 12.7071 2.29296L21.7071 11.293C21.8946 11.4805 22 11.7348 22 12Z" fill="#97A0A8"/>
</svg>
