<svg width="21" height="22" viewBox="0 0 21 22" fill="none" xmlns="http://www.w3.org/2000/svg">
<path d="M12.375 10.5595V20.5595C12.375 20.7567 12.207 20.9167 12 20.9167H8.99996C8.79296 20.9167 8.62496 20.7567 8.62496 20.5595V10.5595C8.62496 10.3624 8.79296 10.2024 8.99996 10.2024H12C12.207 10.2024 12.375 10.3624 12.375 10.5595ZM19.5 7.34526H16.5C16.293 7.34526 16.125 7.50526 16.125 7.7024V20.5595C16.125 20.7567 16.293 20.9167 16.5 20.9167H19.5C19.707 20.9167 19.875 20.7567 19.875 20.5595V7.7024C19.875 7.50526 19.707 7.34526 19.5 7.34526ZM4.49996 13.0595H1.49996C1.29296 13.0595 1.12496 13.2195 1.12496 13.4167V20.5595C1.12496 20.7567 1.29296 20.9167 1.49996 20.9167H4.49996C4.70696 20.9167 4.87496 20.7567 4.87496 20.5595V13.4167C4.87496 13.2195 4.70696 13.0595 4.49996 13.0595ZM19.3125 0.916687H16.3125C16.0016 0.916687 15.75 1.15633 15.75 1.4524C15.75 1.74847 16.0016 1.98812 16.3125 1.98812H17.9002C10.743 8.16847 1.67996 9.8374 1.58471 9.85419C1.27946 9.90812 1.07771 10.1878 1.13434 10.4785C1.19209 10.7717 1.48721 10.9617 1.78984 10.9078C2.19259 10.8367 11.3538 9.15954 18.75 2.70633V4.30954C18.75 4.60562 19.0016 4.84526 19.3125 4.84526C19.6233 4.84526 19.875 4.60562 19.875 4.30954V1.4524C19.875 1.15776 19.6177 0.916687 19.3125 0.916687Z" fill="#6750A4"/>
</svg>
