<svg width="24" height="24" viewBox="0 0 24 24" fill="none" xmlns="http://www.w3.org/2000/svg">
<path d="M13.9771 11.823V22.823C13.9771 23.0398 13.8 23.2158 13.5817 23.2158H10.4184C10.2001 23.2158 10.023 23.0398 10.023 22.823V11.823C10.023 11.6061 10.2001 11.4301 10.4184 11.4301H13.5817C13.8 11.4301 13.9771 11.6061 13.9771 11.823ZM21.4901 8.28725H18.3267C18.1085 8.28725 17.9313 8.46325 17.9313 8.68011V22.823C17.9313 23.0398 18.1085 23.2158 18.3267 23.2158H21.4901C21.7084 23.2158 21.8855 23.0398 21.8855 22.823V8.68011C21.8855 8.46325 21.7084 8.28725 21.4901 8.28725ZM5.67336 14.573H2.51001C2.29174 14.573 2.1146 14.749 2.1146 14.9658V22.823C2.1146 23.0398 2.29174 23.2158 2.51001 23.2158H5.67336C5.89163 23.2158 6.06878 23.0398 6.06878 22.823V14.9658C6.06878 14.749 5.89163 14.573 5.67336 14.573ZM21.2924 1.21582H18.129C17.8012 1.21582 17.5359 1.47943 17.5359 1.80511C17.5359 2.13078 17.8012 2.39439 18.129 2.39439H19.8032C12.2563 9.19278 2.69981 11.0286 2.59938 11.0471C2.27751 11.1064 2.06477 11.414 2.12448 11.7338C2.18538 12.0563 2.49657 12.2653 2.81567 12.206C3.24035 12.1278 12.9004 10.283 20.6992 3.18443V4.94796C20.6992 5.27364 20.9646 5.53725 21.2924 5.53725C21.6202 5.53725 21.8855 5.27364 21.8855 4.94796V1.80511C21.8855 1.481 21.6142 1.21582 21.2924 1.21582Z" fill="#97A0A8"/>
</svg>
