<svg width="26" height="22" viewBox="0 0 26 22" fill="none" xmlns="http://www.w3.org/2000/svg">
<path fill-rule="evenodd" clip-rule="evenodd" d="M7.46553 20.6907C6.15959 20.0915 4.99846 19.2176 4.06153 18.1285C4.04454 18.1144 4.03004 18.0975 4.01866 18.0785C2.47133 16.2747 1.62208 13.9762 1.62501 11.6C1.62447 9.98965 2.0131 8.40303 2.75781 6.97513C3.50252 5.54722 4.58127 4.3203 5.90227 3.39875C7.22327 2.47721 8.74743 1.88832 10.345 1.68221C11.9426 1.47609 13.5664 1.65884 15.0782 2.21491C16.5899 2.77098 17.945 3.68392 19.0279 4.87602C20.1109 6.06813 20.8897 7.50412 21.2982 9.06182C21.7066 10.6195 21.7326 12.2528 21.3739 13.8227C21.0152 15.3926 20.2825 16.8526 19.238 18.0785C19.2266 18.0975 19.2121 18.1144 19.1951 18.1285C18.2582 19.2176 17.097 20.0915 15.7911 20.6907C14.4852 21.2898 13.0652 21.6 11.6283 21.6C10.1914 21.6 8.77147 21.2898 7.46553 20.6907ZM16.4974 3.69079C15.0332 2.79019 13.3475 2.31365 11.6283 2.31426C9.9091 2.31365 8.22348 2.7902 6.75922 3.6908C5.29496 4.59141 4.10957 5.88071 3.33509 7.41509C2.56061 8.94947 2.22746 10.6687 2.37276 12.3812C2.51806 14.0936 3.13609 15.7322 4.15801 17.1142C4.70628 15.572 5.71875 14.2373 7.05634 13.2934C8.39394 12.3496 9.99106 11.8428 11.6283 11.8428C13.2656 11.8428 14.8627 12.3496 16.2003 13.2934C17.5379 14.2373 18.5504 15.572 19.0986 17.1142C20.1206 15.7322 20.7386 14.0936 20.8839 12.3811C21.0292 10.6687 20.696 8.94946 19.9216 7.41508C19.1471 5.8807 17.9617 4.5914 16.4974 3.69079ZM14.8438 7.51427C14.8438 9.28947 13.4042 10.7286 11.6284 10.7286C9.85263 10.7286 8.41307 9.28947 8.41307 7.51427C8.41307 5.73907 9.85263 4.29999 11.6284 4.29999C13.4042 4.29999 14.8438 5.73907 14.8438 7.51427Z" fill="#6750A4"/>
</svg>
