<svg width="24" height="24" viewBox="0 0 24 24" fill="none" xmlns="http://www.w3.org/2000/svg">
<path fill-rule="evenodd" clip-rule="evenodd" d="M7.42458 21.9998C5.98805 21.3407 4.71081 20.3794 3.68018 19.1814C3.66149 19.1659 3.64555 19.1473 3.63302 19.1264C1.93096 17.1422 0.996789 14.6138 1.00001 12C0.999422 10.2286 1.42691 8.48336 2.24609 6.91266C3.06527 5.34197 4.2519 3.99235 5.705 2.97865C7.1581 1.96495 8.83467 1.31718 10.592 1.09045C12.3494 0.863724 14.1355 1.06475 15.7985 1.67643C17.4614 2.28811 18.9519 3.29233 20.1432 4.60365C21.3345 5.91497 22.1912 7.49456 22.6405 9.20802C23.0898 10.9215 23.1184 12.7181 22.7238 14.445C22.3293 16.1719 21.5232 17.7779 20.3743 19.1264C20.3617 19.1473 20.3458 19.1659 20.3271 19.1814C19.2965 20.3794 18.0192 21.3407 16.5827 21.9998C15.1462 22.6588 13.5842 23 12.0036 23C10.4231 23 8.86111 22.6588 7.42458 21.9998ZM17.3597 3.2999C15.749 2.30923 13.8948 1.78504 12.0036 1.78571C10.1125 1.78505 8.25833 2.30924 6.64764 3.29991C5.03696 4.29058 3.73302 5.70881 2.8811 7.39663C2.02917 9.08444 1.66271 10.9756 1.82254 12.8593C1.98236 14.743 2.6622 16.5454 3.78631 18.0657C4.38941 16.3692 5.50312 14.9011 6.97448 13.8628C8.44584 12.8245 10.2027 12.2671 12.0037 12.2671C13.8047 12.2671 15.5615 12.8245 17.0328 13.8628C18.5042 14.9011 19.6179 16.3692 20.221 18.0657C21.3451 16.5454 22.025 14.743 22.1848 12.8593C22.3446 10.9755 21.9781 9.08443 21.1262 7.39662C20.2743 5.7088 18.9703 4.29057 17.3597 3.2999ZM15.5407 7.50572C15.5407 9.45844 13.9571 11.0414 12.0038 11.0414C10.0504 11.0414 8.46689 9.45844 8.46689 7.50572C8.46689 5.553 10.0504 3.97001 12.0038 3.97001C13.9571 3.97001 15.5407 5.553 15.5407 7.50572Z" fill="#97A0A8"/>
</svg>
