<svg width="24" height="24" viewBox="0 0 24 24" fill="none" xmlns="http://www.w3.org/2000/svg">
<path d="M23 1.76744C23 1.5639 22.9191 1.3687 22.7752 1.22478C22.6313 1.08086 22.4361 1 22.2326 1C22.029 1 21.8338 1.08086 21.6899 1.22478C21.546 1.3687 21.4651 1.5639 21.4651 1.76744V20.6977C21.4651 20.9012 21.3843 21.0964 21.2403 21.2403C21.0964 21.3843 20.9012 21.4651 20.6977 21.4651C20.4941 21.4651 20.2989 21.3843 20.155 21.2403C20.0111 21.0964 19.9302 20.9012 19.9302 20.6977V2.7907C19.9297 2.31595 19.7408 1.86082 19.4051 1.52512C19.0694 1.18942 18.6143 1.00058 18.1395 1H2.7907C2.31595 1.00058 1.86082 1.18942 1.52512 1.52512C1.18942 1.86082 1.00058 2.31595 1 2.7907V20.186C1.00076 20.9321 1.29747 21.6474 1.82503 22.175C2.35258 22.7025 3.06788 22.9992 3.81395 23H20.6977C21.308 22.9992 21.8932 22.7563 22.3247 22.3247C22.7563 21.8932 22.9992 21.308 23 20.6977V1.76744ZM4.06977 5.34884C4.06982 5.14532 4.15069 4.95015 4.29461 4.80623C4.43852 4.66232 4.63369 4.58145 4.83721 4.5814H8.93023C9.13375 4.58145 9.32892 4.66232 9.47284 4.80623C9.61675 4.95015 9.69762 5.14532 9.69767 5.34884V9.44186C9.69762 9.64538 9.61675 9.84055 9.47284 9.98446C9.32892 10.1284 9.13375 10.2092 8.93023 10.2093H4.83721C4.63369 10.2092 4.43852 10.1284 4.29461 9.98446C4.15069 9.84055 4.06982 9.64538 4.06977 9.44186V5.34884ZM16.093 19.9302H4.83721C4.63367 19.9302 4.43847 19.8494 4.29455 19.7055C4.15062 19.5615 4.06977 19.3663 4.06977 19.1628C4.06977 18.9593 4.15062 18.764 4.29455 18.6201C4.43847 18.4762 4.63367 18.3953 4.83721 18.3953H16.093C16.2966 18.3953 16.4918 18.4762 16.6357 18.6201C16.7796 18.764 16.8605 18.9593 16.8605 19.1628C16.8605 19.3663 16.7796 19.5615 16.6357 19.7055C16.4918 19.8494 16.2966 19.9302 16.093 19.9302ZM16.093 16.8605H4.83721C4.63367 16.8605 4.43847 16.7796 4.29455 16.6357C4.15062 16.4918 4.06977 16.2966 4.06977 16.093C4.06977 15.8895 4.15062 15.6943 4.29455 15.5504C4.43847 15.4064 4.63367 15.3256 4.83721 15.3256H16.093C16.2966 15.3256 16.4918 15.4064 16.6357 15.5504C16.7796 15.6943 16.8605 15.8895 16.8605 16.093C16.8605 16.2966 16.7796 16.4918 16.6357 16.6357C16.4918 16.7796 16.2966 16.8605 16.093 16.8605ZM16.093 13.7907H4.83721C4.63367 13.7907 4.43847 13.7098 4.29455 13.5659C4.15062 13.422 4.06977 13.2268 4.06977 13.0233C4.06977 12.8197 4.15062 12.6245 4.29455 12.4806C4.43847 12.3367 4.63367 12.2558 4.83721 12.2558H16.093C16.2966 12.2558 16.4918 12.3367 16.6357 12.4806C16.7796 12.6245 16.8605 12.8197 16.8605 13.0233C16.8605 13.2268 16.7796 13.422 16.6357 13.5659C16.4918 13.7098 16.2966 13.7907 16.093 13.7907ZM16.093 9.69767H12C11.7965 9.69767 11.6013 9.61682 11.4573 9.4729C11.3134 9.32897 11.2326 9.13377 11.2326 8.93023C11.2326 8.72669 11.3134 8.53149 11.4573 8.38757C11.6013 8.24365 11.7965 8.16279 12 8.16279H16.093C16.2966 8.16279 16.4918 8.24365 16.6357 8.38757C16.7796 8.53149 16.8605 8.72669 16.8605 8.93023C16.8605 9.13377 16.7796 9.32897 16.6357 9.4729C16.4918 9.61682 16.2966 9.69767 16.093 9.69767ZM16.093 6.62791H12C11.7965 6.62791 11.6013 6.54705 11.4573 6.40313C11.3134 6.25921 11.2326 6.064 11.2326 5.86047C11.2326 5.65693 11.3134 5.46172 11.4573 5.3178C11.6013 5.17388 11.7965 5.09302 12 5.09302H16.093C16.2966 5.09302 16.4918 5.17388 16.6357 5.3178C16.7796 5.46172 16.8605 5.65693 16.8605 5.86047C16.8605 6.064 16.7796 6.25921 16.6357 6.40313C16.4918 6.54705 16.2966 6.62791 16.093 6.62791Z" fill="#97A0A8"/>
<path d="M8.12952 5.65118H5.18604V8.59467H8.12952V5.65118Z" fill="#97A0A8"/>
</svg>
