<svg width="24" height="24" viewBox="0 0 24 24" fill="none" xmlns="http://www.w3.org/2000/svg">
<path d="M21.25 1.94767C21.25 1.76264 21.1765 1.58518 21.0457 1.45434C20.9148 1.3235 20.7374 1.25 20.5523 1.25C20.3673 1.25 20.1898 1.3235 20.059 1.45434C19.9282 1.58518 19.8547 1.76264 19.8547 1.94767V19.157C19.8547 19.342 19.7811 19.5195 19.6503 19.6503C19.5195 19.7811 19.342 19.8547 19.157 19.8547C18.9719 19.8547 18.7945 19.7811 18.6636 19.6503C18.5328 19.5195 18.4593 19.342 18.4593 19.157V2.87791C18.4588 2.44632 18.2871 2.03256 17.9819 1.72738C17.6767 1.4222 17.263 1.25052 16.8314 1.25H2.87791C2.44632 1.25052 2.03256 1.4222 1.72738 1.72738C1.4222 2.03256 1.25052 2.44632 1.25 2.87791V18.6919C1.25069 19.3701 1.52043 20.0204 2.00002 20.5C2.47962 20.9796 3.12989 21.2493 3.80814 21.25H19.157C19.7118 21.2492 20.2438 21.0285 20.6361 20.6361C21.0285 20.2438 21.2492 19.7118 21.25 19.157V1.94767ZM4.0407 5.20349C4.04075 5.01847 4.11427 4.84104 4.2451 4.71021C4.37593 4.57938 4.55335 4.50586 4.73837 4.50581H8.4593C8.64432 4.50586 8.82175 4.57938 8.95258 4.71021C9.08341 4.84104 9.15693 5.01847 9.15698 5.20349V8.92442C9.15693 9.10944 9.08341 9.28687 8.95258 9.4177C8.82175 9.54852 8.64432 9.62204 8.4593 9.62209H4.73837C4.55335 9.62204 4.37593 9.54852 4.2451 9.4177C4.11427 9.28687 4.04075 9.10944 4.0407 8.92442V5.20349ZM14.9709 18.4593H4.73837C4.55334 18.4593 4.37588 18.3858 4.24504 18.255C4.1142 18.1241 4.0407 17.9467 4.0407 17.7616C4.0407 17.5766 4.1142 17.3991 4.24504 17.2683C4.37588 17.1375 4.55334 17.064 4.73837 17.064H14.9709C15.156 17.064 15.3334 17.1375 15.4643 17.2683C15.5951 17.3991 15.6686 17.5766 15.6686 17.7616C15.6686 17.9467 15.5951 18.1241 15.4643 18.255C15.3334 18.3858 15.156 18.4593 14.9709 18.4593ZM14.9709 15.6686H4.73837C4.55334 15.6686 4.37588 15.5951 4.24504 15.4643C4.1142 15.3334 4.0407 15.156 4.0407 14.9709C4.0407 14.7859 4.1142 14.6084 4.24504 14.4776C4.37588 14.3468 4.55334 14.2733 4.73837 14.2733H14.9709C15.156 14.2733 15.3334 14.3468 15.4643 14.4776C15.5951 14.6084 15.6686 14.7859 15.6686 14.9709C15.6686 15.156 15.5951 15.3334 15.4643 15.4643C15.3334 15.5951 15.156 15.6686 14.9709 15.6686ZM14.9709 12.8779H4.73837C4.55334 12.8779 4.37588 12.8044 4.24504 12.6736C4.1142 12.5427 4.0407 12.3653 4.0407 12.1802C4.0407 11.9952 4.1142 11.8177 4.24504 11.6869C4.37588 11.5561 4.55334 11.4826 4.73837 11.4826H14.9709C15.156 11.4826 15.3334 11.5561 15.4643 11.6869C15.5951 11.8177 15.6686 11.9952 15.6686 12.1802C15.6686 12.3653 15.5951 12.5427 15.4643 12.6736C15.3334 12.8044 15.156 12.8779 14.9709 12.8779ZM14.9709 9.15698H11.25C11.065 9.15698 10.8875 9.08347 10.7567 8.95263C10.6258 8.82179 10.5523 8.64434 10.5523 8.4593C10.5523 8.27427 10.6258 8.09681 10.7567 7.96597C10.8875 7.83513 11.065 7.76163 11.25 7.76163H14.9709C15.156 7.76163 15.3334 7.83513 15.4643 7.96597C15.5951 8.09681 15.6686 8.27427 15.6686 8.4593C15.6686 8.64434 15.5951 8.82179 15.4643 8.95263C15.3334 9.08347 15.156 9.15698 14.9709 9.15698ZM14.9709 6.36628H11.25C11.065 6.36628 10.8875 6.29277 10.7567 6.16194C10.6258 6.0311 10.5523 5.85364 10.5523 5.6686C10.5523 5.48357 10.6258 5.30611 10.7567 5.17527C10.8875 5.04444 11.065 4.97093 11.25 4.97093H14.9709C15.156 4.97093 15.3334 5.04444 15.4643 5.17527C15.5951 5.30611 15.6686 5.48357 15.6686 5.6686C15.6686 5.85364 15.5951 6.0311 15.4643 6.16194C15.3334 6.29277 15.156 6.36628 14.9709 6.36628Z" fill="#6750A4"/>
<path d="M7.76162 5.90118H5.43604V8.22677H7.76162V5.90118Z" fill="#6750A4"/>
</svg>
